<svg xmlns="http://www.w3.org/2000/svg" xmlns:xlink="http://www.w3.org/1999/xlink" viewBox="0,0,256,256" width="240px" height="240px" fill-rule="nonzero"><defs><linearGradient x1="13.967" y1="5.979" x2="28.252" y2="44.98" gradientUnits="userSpaceOnUse" id="color-1"><stop offset="0" stop-color="#323232"></stop><stop offset="1" stop-color="#141414"></stop></linearGradient></defs><g fill="url(#color-1)" fill-rule="nonzero" stroke="none" stroke-width="1" stroke-linecap="butt" stroke-linejoin="miter" stroke-miterlimit="10" stroke-dasharray="" stroke-dashoffset="0" font-family="none" font-weight="none" font-size="none" text-anchor="none" style="mix-blend-mode: normal"><g transform="scale(5.33333,5.33333)"><path d="M3.875,34c-0.77,0 -1.251,0.834 -0.866,1.501l2.903,5.018l0.001,0.001c0.743,1.471 2.267,2.48 4.027,2.48h0.003v0h23.298c0.77,0 1.251,-0.833 0.866,-1.5l-4.04,-7c-0.179,-0.309 -0.509,-0.5 -0.866,-0.5zM45.859,34.341c0,-0.872 -0.257,-1.683 -0.697,-2.364l-14.185,-24.658c-0.732,-1.379 -2.183,-2.319 -3.853,-2.319h-5.764c-0.77,0 -1.251,0.833 -0.866,1.5l20.178,34.962c0.385,0.667 1.347,0.667 1.732,0l2.588,-4.482c0.681,-1.145 0.867,-1.652 0.867,-2.639zM24.972,26.5l-8.061,-13.962c-0.385,-0.667 -1.347,-0.667 -1.732,0l-8.061,13.962c-0.385,0.667 0.096,1.5 0.866,1.5h16.122c0.77,0 1.251,-0.833 0.866,-1.5z"></path></g></g></svg>